<svg width="100" height="100" viewBox="0 0 100 100" fill="none" xmlns="http://www.w3.org/2000/svg">
<g clip-path="url(#clip0_6155_141)">
<path d="M37.5 1.7375C38.1085 2.4796 38.4813 3.38669 38.5704 4.34225C38.6595 5.29781 38.4608 6.25818 38 7.1C34.3846 13.7334 32.4974 21.1703 32.5125 28.725C32.5125 53.8562 53 74.2062 78.25 74.2062C81.55 74.2021 84.7438 73.8687 87.8313 73.2062C88.7758 73.0042 89.7588 73.0836 90.6586 73.4347C91.5585 73.7857 92.3356 74.393 92.8937 75.1812C93.4843 76.0016 93.7856 76.9948 93.7506 78.005C93.7155 79.0151 93.346 79.9851 92.7 80.7625C87.7977 86.7836 81.6137 91.635 74.5987 94.9631C67.5836 98.2911 59.9144 100.012 52.15 100C23.3375 100 0 76.7875 0 48.1875C0 26.6625 13.2125 8.2 32.025 0.374996C32.9618 -0.0231292 34.0027 -0.105512 34.9904 0.140296C35.9782 0.386105 36.8591 0.946747 37.5 1.7375Z" fill="white"/>
<path d="M67.4625 19.675C67.5522 19.4044 67.7248 19.1688 67.9559 19.0019C68.1871 18.8349 68.4649 18.7451 68.75 18.7451C69.0352 18.7451 69.313 18.8349 69.5441 19.0019C69.7753 19.1688 69.9479 19.4044 70.0375 19.675L72.4563 26.9375C73.5375 30.175 76.075 32.7125 79.3125 33.7938L86.575 36.2125C86.8457 36.3021 87.0812 36.4748 87.2482 36.7059C87.4151 36.937 87.505 37.2149 87.505 37.5C87.505 37.7851 87.4151 38.063 87.2482 38.2941C87.0812 38.5252 86.8457 38.6979 86.575 38.7875L79.3125 41.2063C77.7149 41.7365 76.2631 42.6324 75.0728 43.8228C73.8825 45.0131 72.9865 46.4649 72.4563 48.0625L70.0375 55.325C69.9479 55.5957 69.7753 55.8312 69.5441 55.9981C69.313 56.1651 69.0352 56.2549 68.75 56.2549C68.4649 56.2549 68.1871 56.1651 67.9559 55.9981C67.7248 55.8312 67.5522 55.5957 67.4625 55.325L65.0438 48.0625C64.5135 46.4649 63.6176 45.0131 62.4273 43.8228C61.237 42.6324 59.7852 41.7365 58.1875 41.2063L50.925 38.7875C50.6544 38.6979 50.4188 38.5252 50.2519 38.2941C50.085 38.063 49.9951 37.7851 49.9951 37.5C49.9951 37.2149 50.085 36.937 50.2519 36.7059C50.4188 36.4748 50.6544 36.3021 50.925 36.2125L58.1875 33.7938C59.7852 33.2635 61.237 32.3676 62.4273 31.1773C63.6176 29.987 64.5135 28.5352 65.0438 26.9375L67.4625 19.675ZM86.6438 0.61876C86.7055 0.4408 86.8211 0.286485 86.9746 0.17727C87.128 0.0680558 87.3117 0.0093689 87.5 0.0093689C87.6884 0.0093689 87.8721 0.0680558 88.0255 0.17727C88.179 0.286485 88.2946 0.4408 88.3563 0.61876L89.9688 5.45626C90.6875 7.61876 92.3813 9.31251 94.5438 10.0313L99.3813 11.6438C99.5592 11.7055 99.7136 11.8211 99.8228 11.9745C99.932 12.128 99.9907 12.3117 99.9907 12.5C99.9907 12.6884 99.932 12.872 99.8228 13.0255C99.7136 13.1789 99.5592 13.2946 99.3813 13.3563L94.5438 14.9688C93.479 15.325 92.5116 15.9237 91.7176 16.7176C90.9237 17.5115 90.325 18.479 89.9688 19.5438L88.3563 24.3813C88.2946 24.5592 88.179 24.7135 88.0255 24.8228C87.8721 24.932 87.6884 24.9907 87.5 24.9907C87.3117 24.9907 87.128 24.932 86.9746 24.8228C86.8211 24.7135 86.7055 24.5592 86.6438 24.3813L85.0313 19.5438C84.675 18.479 84.0764 17.5115 83.2824 16.7176C82.4885 15.9237 81.521 15.325 80.4563 14.9688L75.6188 13.3563C75.4408 13.2946 75.2865 13.1789 75.1773 13.0255C75.0681 12.872 75.0094 12.6884 75.0094 12.5C75.0094 12.3117 75.0681 12.128 75.1773 11.9745C75.2865 11.8211 75.4408 11.7055 75.6188 11.6438L80.4563 10.0313C82.6188 9.31251 84.3125 7.61876 85.0313 5.45626L86.6438 0.61876Z" fill="white"/>
</g>
<defs>
<clipPath id="clip0_6155_141">
<rect width="100" height="100" fill="white"/>
</clipPath>
</defs>
</svg>
