<svg width="100" height="100" viewBox="0 0 100 100" fill="none" xmlns="http://www.w3.org/2000/svg">
<g clip-path="url(#clip0_6155_139)">
<path d="M47.8563 39.0438C48.5438 36.9813 51.4563 36.9813 52.1438 39.0438L56.175 51.15C57.0624 53.8113 58.5574 56.2293 60.5415 58.2124C62.5257 60.1955 64.9445 61.6891 67.6063 62.575L79.7063 66.6063C81.7688 67.2938 81.7688 70.2063 79.7063 70.8938L67.6 74.925C64.9388 75.8123 62.5208 77.3073 60.5377 79.2915C58.5546 81.2757 57.0609 83.6945 56.175 86.3563L52.1438 98.4563C51.9956 98.9079 51.7085 99.3012 51.3235 99.58C50.9386 99.8588 50.4754 100.009 50 100.009C49.5247 100.009 49.0615 99.8588 48.6765 99.58C48.2916 99.3012 48.0045 98.9079 47.8563 98.4563L43.825 86.35C42.9383 83.6894 41.4443 81.2719 39.4612 79.2888C37.4782 77.3058 35.0606 75.8117 32.4 74.925L20.2938 70.8938C19.8422 70.7455 19.4489 70.4585 19.17 70.0735C18.8912 69.6885 18.7411 69.2253 18.7411 68.75C18.7411 68.2747 18.8912 67.8115 19.17 67.4265C19.4489 67.0416 19.8422 66.7545 20.2938 66.6063L32.4 62.575C35.0606 61.6883 37.4782 60.1943 39.4612 58.2112C41.4443 56.2282 42.9383 53.8106 43.825 51.15L47.8563 39.0438ZM23.7125 7.17501C23.8022 6.90435 23.9748 6.66882 24.2059 6.50188C24.4371 6.33494 24.7149 6.24509 25 6.24509C25.2851 6.24509 25.563 6.33494 25.7941 6.50188C26.0253 6.66882 26.1979 6.90435 26.2875 7.17501L28.7063 14.4375C29.7875 17.675 32.325 20.2125 35.5625 21.2938L42.825 23.7125C43.0957 23.8021 43.3312 23.9748 43.4982 24.2059C43.6651 24.437 43.755 24.7149 43.755 25C43.755 25.2851 43.6651 25.563 43.4982 25.7941C43.3312 26.0252 43.0957 26.1979 42.825 26.2875L35.5625 28.7063C33.9649 29.2365 32.5131 30.1324 31.3228 31.3228C30.1325 32.5131 29.2365 33.9649 28.7063 35.5625L26.2875 42.825C26.1979 43.0957 26.0253 43.3312 25.7941 43.4981C25.563 43.6651 25.2851 43.7549 25 43.7549C24.7149 43.7549 24.4371 43.6651 24.2059 43.4981C23.9748 43.3312 23.8022 43.0957 23.7125 42.825L21.2938 35.5625C20.7635 33.9649 19.8676 32.5131 18.6773 31.3228C17.487 30.1324 16.0352 29.2365 14.4375 28.7063L7.17504 26.2875C6.90438 26.1979 6.66884 26.0252 6.50191 25.7941C6.33497 25.563 6.24512 25.2851 6.24512 25C6.24512 24.7149 6.33497 24.437 6.50191 24.2059C6.66884 23.9748 6.90438 23.8021 7.17504 23.7125L14.4375 21.2938C16.0352 20.7635 17.487 19.8676 18.6773 18.6773C19.8676 17.487 20.7635 16.0352 21.2938 14.4375L23.7125 7.17501ZM67.8938 0.61876C67.9555 0.4408 68.0711 0.286485 68.2246 0.17727C68.378 0.0680558 68.5617 0.0093689 68.75 0.0093689C68.9384 0.0093689 69.1221 0.0680558 69.2755 0.17727C69.429 0.286485 69.5446 0.4408 69.6063 0.61876L71.2188 5.45626C71.9375 7.61876 73.6313 9.31251 75.7938 10.0313L80.6313 11.6438C80.8092 11.7055 80.9636 11.8211 81.0728 11.9745C81.182 12.128 81.2407 12.3117 81.2407 12.5C81.2407 12.6884 81.182 12.872 81.0728 13.0255C80.9636 13.1789 80.8092 13.2946 80.6313 13.3563L75.7938 14.9688C74.729 15.325 73.7616 15.9237 72.9676 16.7176C72.1737 17.5115 71.575 18.479 71.2188 19.5438L69.6063 24.3813C69.5446 24.5592 69.429 24.7135 69.2755 24.8228C69.1221 24.932 68.9384 24.9907 68.75 24.9907C68.5617 24.9907 68.378 24.932 68.2246 24.8228C68.0711 24.7135 67.9555 24.5592 67.8938 24.3813L66.2813 19.5438C65.925 18.479 65.3264 17.5115 64.5324 16.7176C63.7385 15.9237 62.771 15.325 61.7063 14.9688L56.875 13.3563C56.6971 13.2946 56.5428 13.1789 56.4335 13.0255C56.3243 12.872 56.2656 12.6884 56.2656 12.5C56.2656 12.3117 56.3243 12.128 56.4335 11.9745C56.5428 11.8211 56.6971 11.7055 56.875 11.6438L61.7125 10.0313C63.875 9.31251 65.5688 7.61876 66.2875 5.45626L67.8938 0.61876Z" fill="white"/>
</g>
<defs>
<clipPath id="clip0_6155_139">
<rect width="100" height="100" fill="white"/>
</clipPath>
</defs>
</svg>
